<?xml version="1.0" encoding="utf-8"?>
<!-- Generator: Adobe Illustrator 19.1.0, SVG Export Plug-In . SVG Version: 6.00 Build 0)  -->
<svg version="1.1" id="Layer_1" xmlns="http://www.w3.org/2000/svg" xmlns:xlink="http://www.w3.org/1999/xlink" x="0px" y="0px"
	 viewBox="-11 157 588.8 480" style="enable-background:new -11 157 588.8 480;" xml:space="preserve">
<style type="text/css">
	.st0{fill:#FFFFFF;}
</style>
<g>
	<path class="st0" d="M528.7,293c-23.4-38.5-50.7-68.2-71.7-88l0,0l0,0h-14.6H373v-48H61v29l36,36v37.1
		c-9.3,7.5-30.3,25.6-51.5,52.8C8.5,359.4-11,412-11,464.1c0,126.6,83.5,169.9,87.1,171.6l2.5,1.3h314.1l2.5-1.3
		c3.6-1.8,87.1-45,87.1-171.7c0-52.1-19.8-104.7-57.3-152.2c-11-14.1-22.1-25.8-31.5-34.8h33.4c32.1,35.3,72.7,93.7,78.8,168H517
		h12.7h24H565h12.8C574.6,392.6,558.1,341.5,528.7,293z M90,181h259v24H114L90,181z M289,229v24H121v-24H289z M458.4,464.1
		c0,28.4-4.6,54.1-13.7,76.9H26.8C18.6,520.5,13,495.2,13,464.1C13,362,96.2,290.4,113.1,277H349h8
		C373.9,290.4,458.4,362,458.4,464.1z"/>
	<rect x="49" y="493" class="st0" width="48" height="24"/>
	<rect x="49" y="445" class="st0" width="24" height="24"/>
	<rect x="49" y="397" class="st0" width="48" height="24"/>
</g>
</svg>
