<?xml version="1.0" encoding="utf-8"?>
<!-- Generator: Adobe Illustrator 18.1.1, SVG Export Plug-In . SVG Version: 6.00 Build 0)  -->
<svg version="1.1" id="Layer_1" xmlns="http://www.w3.org/2000/svg" xmlns:xlink="http://www.w3.org/1999/xlink" x="0px" y="0px"
	 viewBox="0 0 588.8 480" enable-background="new 0 0 588.8 480" xml:space="preserve">
<g>
	<path d="M539.7,136C516.3,97.5,489,67.8,468,48v0h0h-14.6H384V0H72v29l36,36v37.1c-9.3,7.5-30.3,25.6-51.5,52.8
		C19.5,202.4,0,255,0,307.1C0,433.7,83.5,477,87.1,478.7l2.5,1.3h314.1l2.5-1.3c3.6-1.8,87.1-45,87.1-171.7
		c0-52.1-19.8-104.7-57.3-152.2C425,140.7,413.9,129,404.5,120h33.4c32.1,35.3,72.7,93.7,78.8,168H528h12.7h24H576h12.8
		C585.6,235.6,569.1,184.5,539.7,136z M101,24h259v24H125L101,24z M300,72v24H132V72H300z M469.4,307.1c0,28.4-4.6,54.1-13.7,76.9
		H37.8C29.6,363.5,24,338.2,24,307.1C24,205,107.2,133.4,124.1,120H360h8C384.9,133.4,469.4,205,469.4,307.1z"/>
	<rect x="60" y="336" width="48" height="24"/>
	<rect x="60" y="288" width="24" height="24"/>
	<rect x="60" y="240" width="48" height="24"/>
</g>
</svg>
