<?xml version="1.0" encoding="utf-8"?>
<!-- Generator: Adobe Illustrator 18.1.1, SVG Export Plug-In . SVG Version: 6.00 Build 0)  -->
<svg version="1.1" id="Layer_1" xmlns="http://www.w3.org/2000/svg" xmlns:xlink="http://www.w3.org/1999/xlink" x="0px" y="0px"
	 viewBox="0 0 1895.2 492.2" enable-background="new 0 0 1895.2 492.2" xml:space="preserve">
<g>
	<g>
		<path fill="#2460AD" d="M243.7,466.2c5.2,1.2,9.9,0.4,14.5-2.4c4.4-2.8,7.1-6.7,8.4-11.8l0-0.2c1.3-5.1,0.4-9.7-2.3-14.2
			l-41.7-66.4l-32.4,20.3l41.7,66.2C234.7,462.2,238.5,465,243.7,466.2z"/>
		<path fill="#010101" d="M291.3,457.6c2.7-11.9,0.8-23.1-5.7-33.5L167,234.5l3.8-2.3c2-1.2,3.2-3,3.8-5.3c0.6-2.2,0.2-4.4-1-6.3
			c-1.1-2.1-2.9-3.3-5.2-3.9c-2.4-0.5-4.3-0.2-6.3,1l-11.1,6.9c-2.2,1.2-3.4,2.9-4,5.3c-0.5,2.4-0.1,4.5,1.1,6.4l123.2,196.9
			c4,6.3,5.2,13.2,3.4,20.6c-1.7,7.4-5.8,13.1-12.1,17.2c-0.3,0.1-0.4,0.2-0.7,0.5c-6.2,3.7-13,4.7-20.3,3.1
			c-7.3-1.6-12.9-5.8-17-12.2L101.6,265.5c-1.2-2-3-3.2-5.4-3.7c-2.1-0.5-4.4-0.2-6.2,1.1l-11.2,7c-2,1.2-3.2,3-3.8,5.3
			c-0.4,2.2-0.1,4.5,1.1,6.4c1.3,1.8,3,3.2,5.3,3.6c2.3,0.6,4.5,0.3,6.4-0.9l3.9-2.6l118.6,189.6c6.5,10.4,15.8,16.8,27.7,19.7
			c11.9,2.7,23.1,0.8,33.6-5.8c0.2,0,0.3-0.1,0.3-0.1c10.2-6.6,16.7-15.6,19.3-27.4C291.3,457.6,291.3,457.6,291.3,457.6z"/>
	</g>
	<g>
		<defs>
			<path id="SVGID_1_" d="M62.8,205.4l9.9-17.2l9.9,17.2l9.9,17.2H72.7H52.8L62.8,205.4z M72.7,174.1l-16.1,27.8l-16.1,27.8h32.2
				h32.2l-16.1-27.8L72.7,174.1z"/>
		</defs>
		<clipPath id="SVGID_2_">
			<use xlink:href="#SVGID_1_"  overflow="visible"/>
		</clipPath>
		<rect x="37.4" y="171" clip-path="url(#SVGID_2_)" fill="#01AD9D" width="70.6" height="61.8"/>
	</g>
	<g>
		<defs>
			<path id="SVGID_3_" d="M118.7,113.8c12.5,0,22.6,10.1,22.6,22.6c0,12.4-10.1,22.6-22.6,22.6c-12.5,0-22.6-10.1-22.6-22.6
				C96.1,123.9,106.3,113.8,118.7,113.8 M118.7,106c-16.8,0-30.5,13.6-30.5,30.4s13.6,30.4,30.5,30.4c16.8,0,30.5-13.6,30.5-30.4
				S135.6,106,118.7,106"/>
		</defs>
		<clipPath id="SVGID_4_">
			<use xlink:href="#SVGID_3_"  overflow="visible"/>
		</clipPath>
		<rect x="84.8" y="102.5" clip-path="url(#SVGID_4_)" fill="#F17377" width="67.8" height="67.7"/>
	</g>
	<g>
		<g>
			<defs>
				<rect id="SVGID_5_" x="0" y="78.1" width="56.7" height="56"/>
			</defs>
			<clipPath id="SVGID_6_">
				<use xlink:href="#SVGID_5_"  overflow="visible"/>
			</clipPath>
			<g clip-path="url(#SVGID_6_)">
				<defs>
					<path id="SVGID_7_" d="M48.4,126H8.7V86.4h39.7V126z M56.4,78.4H0.7V134h55.8V78.4z"/>
				</defs>
				<clipPath id="SVGID_8_">
					<use xlink:href="#SVGID_7_"  overflow="visible"/>
				</clipPath>
				<g clip-path="url(#SVGID_8_)">
					<defs>
						<rect id="SVGID_9_" x="0" y="78.1" width="56.7" height="56"/>
					</defs>
					<clipPath id="SVGID_10_">
						<use xlink:href="#SVGID_9_"  overflow="visible"/>
					</clipPath>
					<rect x="-2.9" y="74.8" clip-path="url(#SVGID_10_)" fill="#D18CBC" width="62.8" height="62.7"/>
				</g>
			</g>
		</g>
	</g>
	<g>
		<g>
			<defs>
				<polygon id="SVGID_11_" points="89.3,51.6 43.1,5.6 48.1,0.6 94.3,46.6 				"/>
			</defs>
			<clipPath id="SVGID_12_">
				<use xlink:href="#SVGID_11_"  overflow="visible"/>
			</clipPath>
			<rect x="40" y="-2.6" clip-path="url(#SVGID_12_)" fill="#5686C5" width="57.4" height="57.3"/>
		</g>
		<g>
			<defs>
				<polygon id="SVGID_13_" points="48.1,51.6 43.1,46.6 89.8,0 94.8,5 				"/>
			</defs>
			<clipPath id="SVGID_14_">
				<use xlink:href="#SVGID_13_"  overflow="visible"/>
			</clipPath>
			<rect x="40" y="-3.1" clip-path="url(#SVGID_14_)" fill="#5686C5" width="58" height="57.9"/>
		</g>
	</g>
</g>
<g>
	<path fill="#010101" d="M452.5,468.2h-42.6V251.3h41.7v20.4h0.6c11.7-16.2,30.3-24,48.6-24c43.5,0,66.9,36.6,66.9,82.8
		c0,46.5-24.6,82.8-67.8,82.8c-18,0-35.4-5.7-46.8-21h-0.6V468.2z M489.4,279.8c-24.9,0-39.6,21.3-39.6,50.7c0,29.4,14.7,51,39.6,51
		c24.6,0,35.7-22.2,35.7-51C525.1,301.7,514,279.8,489.4,279.8z"/>
	<path fill="#010101" d="M693.4,306.2c0-16.5-10.8-26.4-35.1-26.4c-11.4,0-26.7,2.4-40.8,7.8l-7.8-30.6c14.7-5.4,35.7-9.3,51.6-9.3
		c52.8,0,74.7,22.2,74.7,60.6v65.4c0,11.7,0.6,26.4,2.4,36h-37.8c-1.5-5.1-3-14.4-3.3-19.5h-0.6c-8.1,14.1-24.9,23.1-45.9,23.1
		c-27.6,0-57.3-12.6-57.3-49.2c0-46.5,45.6-54,99.9-54V306.2z M687.7,336.5c-29.1,0-52.8,4.5-52.8,25.8c0,13.8,9,21.6,23.4,21.6
		c24.9,0,35.1-18.3,35.1-36.3v-11.1H687.7z"/>
	<path fill="#010101" d="M757,251.3h24.3v-42h42.6v42h33v32.1h-33v70.8c0,21.6,3,24.9,18,24.9c5.1,0,9.9-0.6,14.1-1.2v31.8
		c-8.1,0.9-18,1.5-27.6,1.5c-39.6,0-47.1-15.9-47.1-45.9v-81.9H757V251.3z"/>
	<path fill="#010101" d="M867.1,251.3h24.3v-42H934v42h33v32.1h-33v70.8c0,21.6,3,24.9,18,24.9c5.1,0,9.9-0.6,14.1-1.2v31.8
		c-8.1,0.9-18,1.5-27.6,1.5c-39.6,0-47.1-15.9-47.1-45.9v-81.9h-24.3V251.3z"/>
	<path fill="#010101" d="M1027,343.1c2.4,27,24.9,38.4,52.2,38.4c12,0,26.4-1.8,37.8-5.7l4.8,31.2c-14.1,3.9-29.1,6.3-47.7,6.3
		c-56.7,0-89.4-33.6-89.4-82.5c0-48,30-83.1,79.5-83.1c46.2,0,71.4,30.6,71.4,78.3v17.1H1027z M1027,313.4h68.7
		c0.3-22.2-12.3-36.9-32.1-36.9C1043.5,276.5,1029.4,291.5,1027,313.4z"/>
	<path fill="#010101" d="M1262.5,281c-3.9-0.9-8.1-1.2-12.3-1.2c-21,0-38.4,13.5-38.4,53.4v76.5h-42.6V251.3h41.7V272h0.6
		c7.8-16.5,21.6-24.3,41.4-24.3c3.9,0,8.1,0.3,11.7,0.6L1262.5,281z"/>
	<path fill="#010101" d="M1330,251.3v21.3h0.6c8.1-16.2,27.6-24.9,48-24.9c35.7,0,58.5,22.8,58.5,57.6v104.4h-42.6v-88.5
		c0-25.8-6-41.4-29.4-41.4c-16.5,0-34.2,11.7-34.2,44.1v85.8h-42.6V251.3H1330z"/>
	<path fill="#010101" d="M1520.5,189.2v220.5h-42.6V189.2H1520.5z"/>
	<path fill="#010101" d="M1653.4,306.2c0-16.5-10.8-26.4-35.1-26.4c-11.4,0-26.7,2.4-40.8,7.8l-7.8-30.6c14.7-5.4,35.7-9.3,51.6-9.3
		c52.8,0,74.7,22.2,74.7,60.6v65.4c0,11.7,0.6,26.4,2.4,36h-37.8c-1.5-5.1-3-14.4-3.3-19.5h-0.6c-8.1,14.1-24.9,23.1-45.9,23.1
		c-27.6,0-57.3-12.6-57.3-49.2c0-46.5,45.6-54,99.9-54V306.2z M1647.7,336.5c-29.1,0-52.8,4.5-52.8,25.8c0,13.8,9,21.6,23.4,21.6
		c24.9,0,35.1-18.3,35.1-36.3v-11.1H1647.7z"/>
	<path fill="#010101" d="M1779.1,409.7h-41.7V189.2h42.6v82.5h0.6c11.7-16.2,29.4-24,47.7-24c43.5,0,66.9,36.6,66.9,82.8
		c0,46.5-24.6,82.8-67.8,82.8c-18,0-36.3-5.7-47.7-21h-0.6V409.7z M1816.9,279.8c-24.9,0-39.6,21.3-39.6,50.7
		c0,29.4,14.7,51,39.6,51c24.6,0,35.7-22.2,35.7-51C1852.6,301.7,1841.5,279.8,1816.9,279.8z"/>
</g>
</svg>
