<?xml version="1.0" standalone="no"?> <!DOCTYPE svg PUBLIC "-//W3C//DTD SVG 1.0//EN" "http://www.w3.org/TR/2001/REC-SVG-20010904/DTD/svg10.dtd" > <svg xmlns="http://www.w3.org/2000/svg" width="100%" height="100%">
<defs >
<font id="sststd-bold" horiz-adv-x="488" ><font-face
    font-family="SST Std"
    units-per-em="1000"
    panose-1="2 11 8 4 3 5 4 2 2 4"
    ascent="1077"
    descent="-230"
    alphabetic="0" />
<missing-glyph horiz-adv-x="512" d="M278 117H222V184H278V117ZM271 234H225L223 251Q223 307 236 332Q251 360 282 391Q313 420 322 437T332 474Q332 510 310 534T256 559Q185 559 174 464L124 472Q131 541 167 575T259 609Q313 609 348 573T383 478Q383 444
370 418T320 358Q283 325 277 306Q271 286 271 234ZM50 50H462V667H50V50ZM0 718H512V0H0V718Z" />
<glyph unicode=" " glyph-name="space" horiz-adv-x="260" />
<glyph unicode="!" glyph-name="exclam" horiz-adv-x="317" d="M241 714L222 248H96L77 714H241ZM80 0V151H233V0H80Z" />
<glyph unicode="&quot;" glyph-name="quotedbl" horiz-adv-x="449" d="M88 491L64 736H199L174 491H88ZM275 491L250 736H384L360 491H275Z" />
<glyph unicode="#" glyph-name="numbersign" horiz-adv-x="605" d="M206 0H96L122 188H30V289H136L154 425H48V526H168L194 714H305L278 526H383L409 714H519L493 526H574V425H479L461 289H554V188H447L421 0H310L337 188H233L206 0ZM264 425L246 289H351L370 425H264Z" />
<glyph unicode="$" glyph-name="dollar" horiz-adv-x="569" d="M478 682L453 573Q389 596 323 599V416Q371 397 402 380T460 339T501 281T514 203Q514 119 458 68T313 6V-78H243V3Q137 8 53 39L79 151Q163 116 243 113V308Q151 344 104 390T57 511Q57 598 113
647T254 707V783H323V709Q412 706 478 682ZM381 197Q381 226 365 245T313 282V115Q381 127 381 197ZM185 553T185 524T200 477T254 441V598Q222 592 204 573Z" />
<glyph unicode="%" glyph-name="percent" horiz-adv-x="848" d="M684 714L268 0H166L585 714H684ZM357 519Q357 428 317 376T200 324Q126 324 85 376T44 519Q44 611 85 663T200 716Q276 716 316 664T357 519ZM251 519Q251 567 238 596T200 625Q176 625 164 596T151
519Q151 472 163 443T200 414Q225 414 238 443T251 519ZM805 195Q805 104 764 52T647 0Q573 0 532 52T491 195Q491 287 532 339T647 392Q723 392 764 340T805 195ZM697 195Q697 301 647 301Q623 301 611 272T598 195T610 119T647 90Q697 90 697 195Z" />
<glyph unicode="&amp;" glyph-name="ampersand" horiz-adv-x="730" d="M388 552Q388 584 370 603T319 623Q285 623 266 602T246 549Q246 497 300 448Q388 484 388 552ZM392 162L257 317Q179 280 179 206Q179 161 207 134T282 107Q352 107 392 162ZM562 167L706
0H530L472 69Q405 -11 276 -11Q174 -11 108 41T42 190Q42 329 185 397Q114 468 114 550Q114 638 174 682T319 726Q404 726 460 685T517 558Q517 436 375 370L472 262Q501 312 525 379H671Q617 251 562 167Z" />
<glyph unicode="&apos;" glyph-name="quotesingle" horiz-adv-x="263" d="M88 491L64 736H199L174 491H88Z" />
<glyph unicode="(" glyph-name="parenleft" horiz-adv-x="333" d="M166 302Q166 170 200 40T299 -195H170Q110 -97 75 32T40 302Q40 581 170 797H299Q235 692 201 563T166 302Z" />
<glyph unicode=")" glyph-name="parenright" horiz-adv-x="333" d="M167 299Q167 431 132 561T34 796H162Q292 582 292 299Q292 17 162 -196H34Q97 -91 132 39T167 299Z" />
<glyph unicode="*" glyph-name="asterisk" horiz-adv-x="444" d="M268 714V596L377 637L410 550L299 513L371 409L295 358L221 465L148 358L73 409L145 513L34 550L67 637L176 596V714H268Z" />
<glyph unicode="+" glyph-name="plus" horiz-adv-x="553" d="M224 69V264H35V364H224V554H328V364H517V264H328V69H224Z" />
<glyph unicode="," glyph-name="comma" horiz-adv-x="305" d="M54 -128L95 156H241L152 -128H54Z" />
<glyph unicode="-" glyph-name="hyphen" horiz-adv-x="396" d="M69 243V358H327V243H69Z" />
<glyph unicode="." glyph-name="period" horiz-adv-x="305" d="M76 0V157H230V0H76Z" />
<glyph unicode="/" glyph-name="slash" horiz-adv-x="489" d="M23 0L346 714H466L143 0H23Z" />
<glyph unicode="0" glyph-name="zero" horiz-adv-x="631" d="M315 726Q447 726 516 628T586 353Q586 178 517 83T315 -12T114 83T45 353Q45 529 113 627T315 726ZM315 609Q190 609 190 353Q190 105 315 105Q441 105 441 353Q441 472 411 540T315 609Z" />
<glyph unicode="1" glyph-name="one" horiz-adv-x="446" d="M338 714V0H192V576L59 497L7 606L190 714H338Z" />
<glyph unicode="2" glyph-name="two" horiz-adv-x="557" d="M513 117V0H34V119Q227 288 292 366T358 509Q358 555 327 582T247 609Q172 609 84 554L38 658Q134 726 258 726Q371 726 437 670T504 512Q504 421 443 341T216 117H513Z" />
<glyph unicode="3" glyph-name="three" horiz-adv-x="558" d="M118 306V423H196Q349 423 349 520Q349 564 319 586T236 609Q157 609 78 570L42 683Q132 726 252 726Q357 726 426 679T495 538Q495 413 373 373V371Q441 356 476 311T512 204Q512 97 436 43T241 -12Q119
-12 23 35L58 146Q148 105 234 105Q294 105 330 131T367 208Q367 306 194 306H118Z" />
<glyph unicode="4" glyph-name="four" horiz-adv-x="598" d="M493 714V266H571V149H493V0H347V149H17V290L290 714H493ZM347 266V583H345L150 266H347Z" />
<glyph unicode="5" glyph-name="five" horiz-adv-x="561" d="M376 220Q376 283 326 309T202 336Q146 336 68 326L89 714H489V597H218L207 446Q234 449 268 449Q376 449 448 390T521 228Q521 112 444 50T250 -12Q129 -12 31 32L66 143Q151 105 235 105Q297 105
336 132T376 220Z" />
<glyph unicode="6" glyph-name="six" horiz-adv-x="603" d="M370 609Q287 609 243 557T188 415H190Q216 444 256 460T338 476Q448 476 509 411T571 238Q571 129 499 59T309 -12Q248 -12 200 8T123 61T75 139T49 230T42 325Q42 504 122 615T360 726Q433 726 501
705L478 589Q423 609 370 609ZM189 253Q189 194 220 149T312 104Q364 104 396 141T429 238Q429 292 399 328T314 365Q258 365 224 331T189 253Z" />
<glyph unicode="7" glyph-name="seven" horiz-adv-x="523" d="M30 597V714H503V597Q407 455 352 300T286 0H137Q149 142 206 307T347 597H30Z" />
<glyph unicode="8" glyph-name="eight" horiz-adv-x="609" d="M304 311Q258 311 220 283T181 204Q181 155 215 129T304 102T393 128T428 204Q428 255 390 283T304 311ZM201 726T304 726T479 675T551 534Q551 415 444 375V373Q574 321 574 191Q574 95 498 42T304
-12Q187 -12 112 41T36 191Q36 322 163 368V370Q57 418 57 534Q57 624 129 675ZM304 422Q350 422 381 447T413 521Q413 565 384 589T304 614Q257 614 227 589T196 521Q196 473 227 448T304 422Z" />
<glyph unicode="9" glyph-name="nine" horiz-adv-x="603" d="M232 104Q317 104 361 157T414 298H412Q362 237 264 237Q154 237 93 302T31 475Q31 584 103 655T293 726Q354 726 402 706T479 652T527 574T553 483T560 388Q560 209 480 99T240 -12Q159 -12 89 8L111
124Q169 104 232 104ZM413 460Q413 519 382 564T290 609Q238 609 206 572T173 475Q173 421 203 385T289 348T379 382T413 460Z" />
<glyph unicode=":" glyph-name="colon" horiz-adv-x="361" d="M104 0V157H258V0H104ZM104 371V528H258V371H104Z" />
<glyph unicode=";" glyph-name="semicolon" horiz-adv-x="361" d="M104 371V528H258V371H104ZM71 -128L113 156H258L169 -128H71Z" />
<glyph unicode="&lt;" glyph-name="less" horiz-adv-x="553" d="M518 433L139 311V309L518 183V78L35 237V379L518 538V433Z" />
<glyph unicode="=" glyph-name="equal" horiz-adv-x="553" d="M35 365V465H517V365H35ZM35 163V263H517V163H35Z" />
<glyph unicode="&gt;" glyph-name="greater" horiz-adv-x="553" d="M35 183L413 306V308L35 433V538L518 379V237L35 78V183Z" />
<glyph unicode="?" glyph-name="question" horiz-adv-x="497" d="M237 609Q166 609 86 565L45 671Q134 726 250 726Q350 726 415 680T481 533Q481 424 395 362L358 335Q319 307 306 288T294 239V223H159V249Q159 298 175 330T232 394Q254 410 273 426T307 456T329
489T338 529Q338 609 237 609ZM151 0V150H307V0H151Z" />
<glyph unicode="@" glyph-name="at" horiz-adv-x="959" d="M500 423Q450 423 420 363T390 232Q390 192 405 161T454 130Q492 130 518 164T555 240T565 321Q565 423 500 423ZM732 -43L756 -137Q642 -185 501 -185Q291 -185 170 -63T48 261Q48 467 179 598T511 729Q690
729 801 633T912 347Q912 201 844 113T671 25Q621 25 595 48T567 110H565Q547 72 511 49T432 25Q349 25 308 84T267 234Q267 351 329 436T493 522Q532 522 558 503T596 455H598L607 497H715L671 264Q657 198 657 168Q657 123 693 123Q739 123 770 188T802 337Q802
479 725 554T510 629Q355 629 261 526T167 259Q167 98 256 8T506 -83Q632 -83 732 -43Z" />
<glyph unicode="A" glyph-name="A" horiz-adv-x="717" d="M219 174L157 0H2L259 714H459L715 0H558L494 174H219ZM357 600L253 292H460L357 600Z" />
<glyph unicode="B" glyph-name="B" horiz-adv-x="659" d="M78 0V714H376Q476 714 535 670T595 534Q595 415 480 372V370Q613 333 613 199Q613 113 555 57T382 0H78ZM224 597V423H327Q449 423 449 513Q449 597 335 597H224ZM224 306V117H342Q403 117 435 137T467
211T430 285T324 306H224Z" />
<glyph unicode="C" glyph-name="C" horiz-adv-x="622" d="M582 698L555 584Q492 609 427 609Q317 609 258 537T198 354Q198 250 258 178T426 105Q501 105 561 132L586 19Q511 -12 409 -12Q248 -12 150 90T52 355Q52 520 149 623T414 726Q514 726 582 698Z" />
<glyph unicode="D" glyph-name="D" horiz-adv-x="733" d="M78 0V714H321Q495 714 588 621T681 360Q681 192 588 96T321 0H78ZM224 597V117H300Q418 117 476 181T535 358Q535 470 477 533T300 597H224Z" />
<glyph unicode="E" glyph-name="E" horiz-adv-x="559" d="M78 0V714H508V597H224V423H485V306H224V117H517V0H78Z" />
<glyph unicode="F" glyph-name="F" horiz-adv-x="537" d="M78 0V714H506V597H224V423H482V306H224V0H78Z" />
<glyph unicode="G" glyph-name="G" horiz-adv-x="735" d="M643 685L603 567Q533 609 440 609Q330 609 264 541T198 352Q198 246 260 176T431 105Q486 105 518 119V297H397V414H663V38Q562 -12 420 -12Q253 -12 153 90T52 355Q52 521 153 623T439 726Q553 726 643 685Z" />
<glyph unicode="H" glyph-name="H" horiz-adv-x="721" d="M78 0V714H224V423H498V714H644V0H498V306H224V0H78Z" />
<glyph unicode="I" glyph-name="I" horiz-adv-x="302" d="M78 0V714H224V0H78Z" />
<glyph unicode="J" glyph-name="J" horiz-adv-x="360" d="M291 714V179Q291 82 240 35T82 -12Q38 -12 0 -7V110Q30 105 59 105Q103 105 124 125T145 195V714H291Z" />
<glyph unicode="K" glyph-name="K" horiz-adv-x="650" d="M461 714H635L381 369L648 0H468L226 355H224V0H78V714H224V379H226L461 714Z" />
<glyph unicode="L" glyph-name="L" horiz-adv-x="521" d="M78 0V714H224V117H508V0H78Z" />
<glyph unicode="M" glyph-name="M" horiz-adv-x="925" d="M322 714L460 139H463L601 714H847V0H709V592H707L550 0H368L214 592H212V0H78V714H322Z" />
<glyph unicode="N" glyph-name="N" horiz-adv-x="737" d="M303 714L520 144H522V714H659V0H441L216 578H214V0H78V714H303Z" />
<glyph unicode="O" glyph-name="O" horiz-adv-x="777" d="M723 356Q723 191 635 90T388 -12T142 89T53 356Q53 522 141 624T388 726T635 624T723 356ZM577 245T577 356T529 538T388 609T247 538T199 356Q199 246 247 176T389 105Q483 105 530 175Z" />
<glyph unicode="P" glyph-name="P" horiz-adv-x="637" d="M78 0V714H346Q462 714 533 662T604 493Q604 374 533 318T347 261H224V0H78ZM224 597V379H331Q458 379 458 488Q458 548 424 572T324 597H224Z" />
<glyph unicode="Q" glyph-name="Q" horiz-adv-x="777" d="M723 356Q723 125 567 35L676 -117H515L440 -8Q406 -12 388 -12Q230 -12 142 89T53 356Q53 522 141 624T388 726T635 624T723 356ZM578 245T578 356T530 538T388 609T247 538T199 356Q199 246 247 176T389
105Q483 105 530 175Z" />
<glyph unicode="R" glyph-name="R" horiz-adv-x="653" d="M78 0V714H355Q406 714 448 704T526 672T582 612T603 520Q603 395 482 354V352Q516 340 534 314T572 223L638 0H481L433 187Q416 248 391 268T292 288H224V0H78ZM224 597V405H320Q457 405 457 501T324 597H224Z" />
<glyph unicode="S" glyph-name="S" horiz-adv-x="568" d="M485 700L460 583Q388 609 307 609Q193 609 193 533Q193 497 223 474T328 420Q430 378 478 331T526 198Q526 96 451 42T262 -12Q146 -12 45 24L71 143Q165 105 257 105Q380 105 380 188Q380 226 349 251T240
306Q145 344 96 393T47 519Q47 589 85 637T178 706T298 726Q405 726 485 700Z" />
<glyph unicode="T" glyph-name="T" horiz-adv-x="543" d="M200 0V597H10V714H532V597H346V0H200Z" />
<glyph unicode="U" glyph-name="U" horiz-adv-x="710" d="M640 714V211Q640 105 561 47T354 -12Q228 -12 149 46T70 211V714H216V229Q216 166 253 136T353 105T455 136T494 229V714H640Z" />
<glyph unicode="V" glyph-name="V" horiz-adv-x="679" d="M248 0L3 714H163L339 140H341L518 714H676L430 0H248Z" />
<glyph unicode="W" glyph-name="W" horiz-adv-x="980" d="M590 0L492 581H490L390 0H185L30 714H189L291 130H293L385 714H600L689 130H691L796 714H951L796 0H590Z" />
<glyph unicode="X" glyph-name="X" horiz-adv-x="656" d="M471 714H638L428 371L654 0H482L329 268L173 0H1L229 371L20 714H190L329 469L471 714Z" />
<glyph unicode="Y" glyph-name="Y" horiz-adv-x="673" d="M264 0V272L1 714H172L338 410L505 714H672L410 272V0H264Z" />
<glyph unicode="Z" glyph-name="Z" horiz-adv-x="603" d="M37 117L382 597H65V714H556V597L211 117H563V0H37V117Z" />
<glyph unicode="[" glyph-name="bracketleft" horiz-adv-x="333" d="M281 797V699H179V-96H281V-195H60V797H281Z" />
<glyph unicode="\" glyph-name="backslash" horiz-adv-x="489" d="M144 714L467 0H345L22 714H144Z" />
<glyph unicode="]" glyph-name="bracketright" horiz-adv-x="333" d="M53 -195V-97H162V698H53V797H279V-195H53Z" />
<glyph unicode="^" glyph-name="asciicircum" horiz-adv-x="553" d="M274 600L172 299H57L210 700H342L494 299H379L276 600H274Z" />
<glyph unicode="_" glyph-name="underscore" d="M0 -80H488V-157H0V-80Z" />
<glyph unicode="`" glyph-name="grave" horiz-adv-x="461" d="M226 604L93 768H242L333 604H226Z" />
<glyph unicode="a" glyph-name="a" horiz-adv-x="583" d="M373 332V345Q373 433 256 433Q188 433 120 407L94 509Q178 540 266 540Q515 540 515 338V120Q515 43 523 0H397Q388 30 386 65H384Q363 29 323 9T231 -12Q152 -12 96 28T40 152Q40 208 65 245T140 300T243
325T373 332ZM373 244H354Q271 244 225 226T178 158Q178 124 199 105T256 86Q314 86 343 121T373 207V244Z" />
<glyph unicode="b" glyph-name="b" horiz-adv-x="642" d="M209 58V0H70V735H212V460H214Q272 540 373 540Q478 540 537 462T596 264T536 66T370 -12Q263 -12 211 58H209ZM454 188T454 264T424 386T335 433Q274 433 239 386T203 264T238 142T335 94Q394 94 424 141Z" />
<glyph unicode="c" glyph-name="c" horiz-adv-x="479" d="M450 523L426 417Q387 433 341 433Q268 433 228 385T188 263T227 142T344 95Q395 95 430 110L452 6Q399 -12 332 -12Q195 -12 121 64T46 263Q46 386 122 463T331 540Q400 540 450 523Z" />
<glyph unicode="d" glyph-name="d" horiz-adv-x="643" d="M431 469V735H573V0H434V67H432Q376 -12 269 -12Q164 -12 105 66T46 264T106 462T272 540Q376 540 429 469H431ZM188 340T188 264T218 141T308 94T403 141T439 265Q439 339 404 386T308 433T218 387Z" />
<glyph unicode="e" glyph-name="e" horiz-adv-x="590" d="M548 222H186Q192 158 239 126T360 94Q430 94 486 113L502 9Q426 -12 343 -12Q203 -12 124 63T45 263Q45 385 116 462T310 540Q424 540 486 470T548 279V222ZM308 444Q258 444 225 410T186 321H415Q416
377 387 410T308 444Z" />
<glyph unicode="f" glyph-name="f" horiz-adv-x="350" d="M380 727L370 622Q346 628 310 628Q270 628 252 611T233 553V528H344V421H233V0H91V421H6V528H91V563Q91 735 291 735Q335 735 380 727Z" />
<glyph unicode="g" glyph-name="g" horiz-adv-x="641" d="M187 278Q187 207 217 164T306 120Q365 120 401 165T437 278Q437 345 402 389T306 433Q247 433 217 391T187 278ZM432 46V83H430Q377 14 277 14Q171 14 108 88T45 278T108 466T277 540Q376 540 430 470H432V528H571V49Q571
-19 547 -68T479 -144T388 -183T282 -195Q190 -195 116 -174L133 -69Q194 -88 266 -88Q351 -88 391 -55T432 46Z" />
<glyph unicode="h" glyph-name="h" horiz-adv-x="632" d="M70 735H212V457H214Q235 497 277 518T371 540Q460 540 513 488T566 348V0H424V295Q424 364 403 398T326 433Q279 433 246 397T212 286V0H70V735Z" />
<glyph unicode="i" glyph-name="i" horiz-adv-x="282" d="M70 528H212V0H70V528ZM70 732H212V609H70V732Z" />
<glyph unicode="j" glyph-name="j" horiz-adv-x="282" d="M212 528V-24Q212 -108 170 -151T29 -195Q-11 -195 -39 -191V-84Q-15 -88 6 -88Q43 -88 56 -70T70 -7V528H212ZM70 732H212V609H70V732Z" />
<glyph unicode="k" glyph-name="k" horiz-adv-x="573" d="M389 528H558L363 292L570 0H399L214 277H212V0H70V735H212V300H214L389 528Z" />
<glyph unicode="l" glyph-name="l" horiz-adv-x="282" d="M70 735H212V0H70V735Z" />
<glyph unicode="m" glyph-name="m" horiz-adv-x="946" d="M70 528H209V456H211Q230 495 271 517T363 540Q480 540 518 454H520Q570 540 684 540Q782 540 831 489T880 348V0H738V295Q738 367 721 400T649 433Q607 433 578 406T548 320V0H406V297Q406 368 389 400T316
433Q271 433 242 398T212 288V0H70V528Z" />
<glyph unicode="n" glyph-name="n" horiz-adv-x="632" d="M70 528H209V457H211Q231 496 274 518T371 540Q460 540 513 488T566 348V0H424V295Q424 364 403 398T326 433Q279 433 246 397T212 286V0H70V528Z" />
<glyph unicode="o" glyph-name="o" horiz-adv-x="630" d="M584 393T584 265T511 63T315 -12Q191 -12 119 62T46 265T118 466T315 540T511 467ZM442 265Q442 342 410 387T315 433T220 388T188 265Q188 186 220 141T315 95Q378 95 410 140T442 265Z" />
<glyph unicode="p" glyph-name="p" horiz-adv-x="642" d="M212 58V-195H70V528H209V460H211Q269 540 373 540Q478 540 537 462T596 264T536 66T370 -12Q266 -12 214 58H212ZM454 188T454 264T424 386T335 433Q274 433 239 386T203 264T238 142T335 94Q394 94 424 141Z" />
<glyph unicode="q" glyph-name="q" horiz-adv-x="642" d="M434 469V528H573V-195H431V67H429Q373 -12 270 -12Q164 -12 105 65T46 262Q46 383 106 461T273 540T432 469H434ZM188 340T188 264T218 141T308 94T403 141T439 265Q439 339 404 386T308 433T218 387Z" />
<glyph unicode="r" glyph-name="r" horiz-adv-x="397" d="M388 538L381 429Q364 433 340 433Q282 433 247 391T212 255V0H70V528H209V459H211Q249 540 349 540Q364 540 388 538Z" />
<glyph unicode="s" glyph-name="s" horiz-adv-x="492" d="M425 510L394 405Q325 433 250 433Q180 433 180 390Q180 368 200 354T278 321Q368 293 411 254T454 149Q454 66 390 27T235 -12Q125 -12 37 25L65 133Q153 95 234 95Q319 95 319 142Q319 165 296 180T208
215Q123 243 85 281T46 376Q46 457 106 498T252 540Q347 540 425 510Z" />
<glyph unicode="t" glyph-name="t" horiz-adv-x="367" d="M10 421V528H91V668H233V528H343V421H233V185Q233 132 244 117T293 102Q312 102 340 106V0Q295 -5 248 -5Q154 -5 123 31T91 148V421H10Z" />
<glyph unicode="u" glyph-name="u" horiz-adv-x="632" d="M562 0H423V71H421Q401 32 358 10T262 -12Q173 -12 120 40T66 180V528H208V233Q208 165 230 130T307 95Q354 95 387 131T420 242V528H562V0Z" />
<glyph unicode="v" glyph-name="v" horiz-adv-x="564" d="M157 528L282 128H284L410 528H560L364 0H198L4 528H157Z" />
<glyph unicode="w" glyph-name="w" horiz-adv-x="864" d="M522 528L612 128H614L697 528H842L703 0H521L432 406H430L341 0H160L22 528H168L254 128H256L341 528H522Z" />
<glyph unicode="x" glyph-name="x" horiz-adv-x="556" d="M381 528H537L375 274L550 0H389L279 186L166 0H4L181 274L18 528H178L279 357L381 528Z" />
<glyph unicode="y" glyph-name="y" horiz-adv-x="566" d="M157 528L285 174H287L414 528H563L277 -195H126L212 12L4 528H157Z" />
<glyph unicode="z" glyph-name="z" horiz-adv-x="511" d="M36 105L296 421H57V528H467V422L210 107H478V0H36V105Z" />
<glyph unicode="{" glyph-name="braceleft" horiz-adv-x="333" d="M9 239V363Q51 365 65 391T79 478V634Q79 718 124 757T242 797H290V692H263Q231 692 217 671T203 602V463Q203 388 184 353T111 302V300Q164 283 183 249T203 139V1Q203 -50 217 -70T263 -90H290V-195H242Q169
-195 124 -156T79 -30V124Q79 185 65 211T9 239Z" />
<glyph unicode="|" glyph-name="bar" horiz-adv-x="465" d="M180 735H285V-195H180V735Z" />
<glyph unicode="}" glyph-name="braceright" horiz-adv-x="333" d="M324 363V239Q282 237 268 211T253 124V-32Q253 -116 209 -155T91 -195H42V-90H69Q101 -90 115 -69T129 0V139Q129 214 149 249T222 299V301Q169 319 149 353T129 462V601Q129 652 116 671T69
691H42V797H91Q164 797 208 758T253 632V478Q253 416 267 391T324 363Z" />
<glyph unicode="~" glyph-name="asciitilde" horiz-adv-x="553" d="M398 336Q471 339 513 388V277Q464 231 384 231Q334 231 268 264T162 297Q87 297 40 245V356Q87 402 170 402Q220 402 287 369T398 336Z" />
</font>
</defs>
</svg>
