<?xml version="1.0" encoding="utf-8"?>
<!-- Generator: Adobe Illustrator 18.1.1, SVG Export Plug-In . SVG Version: 6.00 Build 0)  -->
<svg version="1.1" id="Layer_1" xmlns="http://www.w3.org/2000/svg" xmlns:xlink="http://www.w3.org/1999/xlink" x="0px" y="0px"
	 viewBox="0 0 172.5 172.5" enable-background="new 0 0 172.5 172.5" xml:space="preserve">
<rect x="0" y="0" fill="#55ACC4" width="172.5" height="172.5"/>
<g id="Shape_218">
	<g>
		<path fill="#FFFFFF" d="M123.8,32.2H84.7c-9.1,0-16.5,7.4-16.5,16.5v19.6H48.6c-9.1,0-16.5,7.4-16.5,16.5v39.2
			c0,9.1,7.4,16.5,16.5,16.5h39.2c9.1,0,16.5-7.4,16.5-16.5v-19.6h19.6c9.1,0,16.5-7.4,16.5-16.5V48.7
			C140.3,39.5,133,32.2,123.8,32.2z M46.9,96.6c0-3,2.4-5.4,5.4-5.4c3,0,5.4,2.4,5.4,5.4c0,3-2.4,5.4-5.4,5.4
			C49.3,102,46.9,99.6,46.9,96.6z M83.5,120.5c-7.7,6.9-23.8,6.8-30.8-0.2c-1.7-1.7-1.7-4.5,0-6.2c1.7-1.7,4.5-1.7,6.2,0
			c3.8,3.8,14.4,3.7,18.7-0.2v0c1.8-1.6,4.6-1.5,6.2,0.3C85.5,116.1,85.3,118.8,83.5,120.5z M84.1,102c-3,0-5.4-2.4-5.4-5.4
			c0-3,2.4-5.4,5.4-5.4c3,0,5.4,2.4,5.4,5.4C89.5,99.6,87,102,84.1,102z M88.4,65.9c-3,0-5.4-2.4-5.4-5.4c0-3,2.4-5.4,5.4-5.4
			c3,0,5.4,2.4,5.4,5.4C93.8,63.5,91.3,65.9,88.4,65.9z M119.6,84.5c-3.8,3.4-9.6,5.1-15.4,5.1l0-8.7c3.7,0,7.4-1,9.5-2.9v0
			c1.8-1.6,4.6-1.5,6.2,0.3C121.6,80.2,121.4,82.9,119.6,84.5z M120.2,65.9c-3,0-5.4-2.4-5.4-5.4c0-3,2.4-5.4,5.4-5.4
			c3,0,5.4,2.4,5.4,5.4C125.6,63.5,123.2,65.9,120.2,65.9z"/>
	</g>
</g>
</svg>
