<?xml version="1.0" encoding="utf-8"?>
<!-- Generator: Adobe Illustrator 18.1.1, SVG Export Plug-In . SVG Version: 6.00 Build 0)  -->
<svg version="1.1" id="Layer_1" xmlns="http://www.w3.org/2000/svg" xmlns:xlink="http://www.w3.org/1999/xlink" x="0px" y="0px"
	 viewBox="0 0 20 20.8" enable-background="new 0 0 20 20.8" xml:space="preserve">
<g>
	<defs>
		<rect id="SVGID_1_" y="0" width="20" height="20.8"/>
	</defs>
	<clipPath id="SVGID_2_">
		<use xlink:href="#SVGID_1_"  overflow="visible"/>
	</clipPath>
	<path clip-path="url(#SVGID_2_)" fill="#FFFFFF" d="M13,16.3H7.5v-1.1h1.4V9H7.5V7.9h4v0.9V9v6.3H13V16.3z M10,3.7
		c0.8,0,1.5,0.7,1.5,1.5c0,0.8-0.7,1.5-1.5,1.5C9.2,6.7,8.5,6,8.5,5.2C8.5,4.3,9.2,3.7,10,3.7 M10,0C4.5,0,0,4.5,0,10s4.5,10,10,10
		c1.4,0,2.8-0.3,4-0.8l3.7,1.7L17,17.1c0.3-0.3,0.6-0.6,0.9-1c0.2-0.3,0.4-0.5,0.6-0.8c1-1.5,1.6-3.4,1.6-5.3C20,4.5,15.5,0,10,0"/>
</g>
</svg>
