<?xml version="1.0" encoding="utf-8"?>
<!-- Generator: Adobe Illustrator 18.1.1, SVG Export Plug-In . SVG Version: 6.00 Build 0)  -->
<svg version="1.1" id="Layer_1" xmlns="http://www.w3.org/2000/svg" xmlns:xlink="http://www.w3.org/1999/xlink" x="0px" y="0px"
	 viewBox="0 0 11.4 11.3" enable-background="new 0 0 11.4 11.3" xml:space="preserve">
<path fill="#FFFFFF" d="M0.7,1.1h3.6v3.7H0.7V1.1z M0.1,5.4h4.7V0.5H0.1V5.4z"/>
<g>
	<defs>
		<rect id="SVGID_1_" x="0" y="0" width="11.4" height="11.3"/>
	</defs>
	<clipPath id="SVGID_2_">
		<use xlink:href="#SVGID_1_"  overflow="visible"/>
	</clipPath>
	<path clip-path="url(#SVGID_2_)" fill="#FFFFFF" d="M8.4,6.6c-1.1,0-2.1,0.9-2.1,2.1s0.9,2.1,2.1,2.1s2.1-0.9,2.1-2.1
		S9.5,6.6,8.4,6.6 M8.4,11.3c-1.5,0-2.7-1.2-2.7-2.7S6.9,6,8.4,6S11,7.2,11,8.7S9.8,11.3,8.4,11.3"/>
</g>
<polygon fill="#FFFFFF" points="2.4,8.3 0.4,6.3 0,6.7 2,8.7 0,10.7 0.4,11.1 2.4,9.1 4.4,11.1 4.8,10.7 2.8,8.7 4.8,6.7 4.4,6.3 
	"/>
<path fill="#FFFFFF" d="M8.4,1.2l2,3.6H6.5L8.4,1.2z M8.4,0L5.5,5.4h5.9L8.4,0z"/>
</svg>
