<?xml version="1.0" encoding="utf-8"?>
<!-- Generator: Adobe Illustrator 19.2.1, SVG Export Plug-In . SVG Version: 6.00 Build 0)  -->
<svg version="1.1" id="Layer_1" xmlns="http://www.w3.org/2000/svg" xmlns:xlink="http://www.w3.org/1999/xlink" x="0px" y="0px"
	 viewBox="0 0 154.6 154.6" style="enable-background:new 0 0 154.6 154.6;" xml:space="preserve">
<style type="text/css">
	.st0{fill:#323232;}
	.st1{fill:#D6BD72;}
</style>
<g>
	<path class="st0" d="M37,23.4l-6-8C44.5,5.3,60.5,0,77.3,0v10C62.6,10,48.7,14.6,37,23.4z"/>
	<path class="st0" d="M13,57.3l-9.5-3c4.8-15.4,14.6-29.2,27.6-39l6,8C25.7,31.8,17.2,43.9,13,57.3z"/>
	<path class="st0" d="M3.7,101C1.2,93.4,0,85.4,0,77.3c0-7.8,1.2-15.6,3.5-23l9.5,3c-2,6.5-3,13.2-3,20c0,7.1,1.1,14,3.2,20.6
		L3.7,101z"/>
	<path class="st0" d="M31.8,139.8C18.7,130.2,8.7,116.4,3.7,101l9.5-3.1c4.3,13.4,13,25.4,24.5,33.8L31.8,139.8z"/>
	<path class="st0" d="M77.3,154.6c-16.5,0-32.2-5.1-45.5-14.8l5.9-8.1c11.6,8.4,25.2,12.9,39.6,12.9V154.6z"/>
	<path class="st0" d="M77.3,154.6v-10c14.6,0,28.6-4.6,40.3-13.4l6,8C110.1,149.3,94.1,154.6,77.3,154.6z"/>
	<path class="st1" d="M123.5,139.2l-6-8c11.3-8.5,19.8-20.5,24-33.9l9.5,3C146.3,115.7,136.5,129.5,123.5,139.2z"/>
	<path class="st1" d="M151.1,100.3l-9.5-3c2-6.5,3-13.2,3-20c0-7.1-1.1-14.2-3.3-20.9l9.5-3.1c2.5,7.7,3.8,15.8,3.8,24
		C154.6,85.1,153.4,92.9,151.1,100.3z"/>
	<path class="st1" d="M141.3,56.4c-4.3-13.3-13-25.3-24.4-33.6l5.9-8.1c13.1,9.5,23.1,23.2,28.1,38.6L141.3,56.4z"/>
	<path class="st1" d="M116.9,22.8C105.3,14.4,91.6,10,77.3,10V0c16.5,0,32.2,5.1,45.4,14.8L116.9,22.8z"/>
</g>
<g>
	<path class="st1" d="M67,82.6l10.7-25.4h6v25.4h3.9v6.1h-3.9v8.6h-6v-8.6H67V82.6z M77.7,82.6V70.1l-5,12.5H77.7z"/>
</g>
</svg>
