<?xml version="1.0" encoding="utf-8"?>
<!-- Generator: Adobe Illustrator 19.2.1, SVG Export Plug-In . SVG Version: 6.00 Build 0)  -->
<svg version="1.1" id="Layer_1" xmlns="http://www.w3.org/2000/svg" xmlns:xlink="http://www.w3.org/1999/xlink" x="0px" y="0px"
	 viewBox="0 0 154.6 154.6" style="enable-background:new 0 0 154.6 154.6;" xml:space="preserve">
<style type="text/css">
	.st0{fill:#323232;}
	.st1{fill:#D6BD72;}
</style>
<g>
	<path class="st0" d="M38.4,23.4l-6-8C45.8,5.4,61.8,0.1,78.6,0.1v10C64,10.1,50.1,14.7,38.4,23.4z"/>
	<path class="st0" d="M14.3,57.4l-9.5-3c4.8-15.4,14.6-29.2,27.6-39l6,8C27,31.9,18.5,44,14.3,57.4z"/>
	<path class="st0" d="M5,101.1c-2.5-7.6-3.7-15.6-3.7-23.7c0-7.8,1.2-15.6,3.5-23l9.5,3c-2,6.5-3,13.2-3,20c0,7.1,1.1,14,3.2,20.6
		L5,101.1z"/>
	<path class="st0" d="M33.2,139.9C20,130.3,10,116.5,5,101.1l9.5-3.1c4.3,13.4,13,25.4,24.5,33.8L33.2,139.9z"/>
	<path class="st0" d="M78.6,154.7c-16.5,0-32.2-5.1-45.5-14.8l5.9-8.1c11.6,8.4,25.2,12.9,39.6,12.9V154.7z"/>
	<path class="st0" d="M78.6,154.7v-10c14.6,0,28.6-4.6,40.3-13.4l6,8C111.4,149.4,95.4,154.7,78.6,154.7z"/>
	<path class="st0" d="M124.9,139.3l-6-8c11.3-8.5,19.8-20.5,24-33.9l9.5,3C147.7,115.8,137.9,129.6,124.9,139.3z"/>
	<path class="st0" d="M152.4,100.4l-9.5-3c2-6.5,3-13.2,3-20c0-7.1-1.1-14.2-3.3-20.9l9.5-3.1c2.5,7.7,3.8,15.8,3.8,24
		C155.9,85.2,154.7,92.9,152.4,100.4z"/>
	<path class="st1" d="M142.6,56.5c-4.3-13.3-13-25.3-24.4-33.6l5.9-8.1c13.1,9.5,23.1,23.2,28.1,38.6L142.6,56.5z"/>
	<path class="st1" d="M118.2,22.9C106.6,14.5,93,10.1,78.6,10.1v-10c16.5,0,32.2,5.1,45.4,14.8L118.2,22.9z"/>
</g>
<g>
	<path class="st1" d="M68.9,68.7c0-3.8,1-6.7,3.1-8.7c1.8-1.8,4.1-2.7,7-2.7c2.6,0,4.9,1,6.8,3c1.9,2,2.8,4.3,2.8,6.9
		c0,2.7-0.6,5.4-1.8,7.9C86,76.5,84.4,79,82,82.4c-0.7,0.9-1.6,2.4-2.9,4.4L78,88.4c-0.7,1.1-1.2,1.9-1.6,2.5
		c-0.2,0.3-0.3,0.5-0.3,0.6H88v5.9H68.8v-5.5c0-0.1,0.4-0.9,1.3-2.2c0.4-0.6,0.9-1.3,1.4-2l1.6-2.3c0.9-1.3,2.4-3.3,4.3-6
		c1.9-2.6,3.2-5,4.2-7.1c0.7-1.7,1.1-3.3,1.1-4.8c0-1.2-0.3-2.2-1-3.1c-0.7-0.9-1.7-1.3-2.9-1.3c-1.7,0-2.9,1-3.6,2.9
		c-0.2,0.6-0.4,1.4-0.4,2.3v1.5h-6V68.7z"/>
</g>
</svg>
