<?xml version="1.0" encoding="utf-8"?>
<!-- Generator: Adobe Illustrator 18.1.1, SVG Export Plug-In . SVG Version: 6.00 Build 0)  -->
<svg version="1.1" id="Layer_1" xmlns="http://www.w3.org/2000/svg" xmlns:xlink="http://www.w3.org/1999/xlink" x="0px" y="0px"
	 viewBox="-143 372.2 805.7 99.6" enable-background="new -143 372.2 805.7 99.6" xml:space="preserve">
<g>
	<g>
		<path fill="#FFFFFF" d="M72,403c-0.6,0-8.2-0.7-9.2-0.8c-5.1-0.5-7.2-5.8-7.2-9.1v-2.6c0-3.3,1.1-10.1,9.3-10.1
			c5.2,0,17.2,0,17.2,0l0-7.9c0,0-11.6,0-19.7,0c-14.3,0-19.1,11.8-19.1,18.1v4.3c0,5.1,3.5,16.3,15.7,17.7c1.4,0.2,4.5,0.4,6.1,0.5
			c5.8,0.5,8.4,4.9,8.4,9.5c0,1.3,0,3.1,0,3.8c0,8.8-5.7,10.7-8.9,10.7c-3.2,0-18.4,0-18.4,0v7.8c0,0,17.8,0,23.3,0
			c10.5,0,16.9-8.7,16.9-19.2v-4.5C86.2,412.6,80.7,403.8,72,403z M108.4,380.6l-12.9,0c0,0,0,42.3,0,49.1c0,6,4.4,15.3,14.7,15.3
			c7,0,8.5,0,8.5,0v-7.8c0,0-0.8,0-5.7,0c-2.4,0-4.6-1.7-4.6-5.8c0-3.1,0-33.7,0-33.7h13.8v-7.9h-13.8V380.6z M-64.9,416.1
			c0,5.4,0,2.8,0,12.1c0,11.8,7.9,16.7,13.6,16.7c7.7,0,12.8,0,12.8,0v-7.8c0,0-4.6,0-8.2,0c-2.4,0-5.4-0.3-5.4-7.2v-15.3
			c0-16,5.4-17,9.1-17c8.8,0,10.3,0,10.3,0V445l12.7,0v-55.1c0,0-11.1,0-21.8,0C-50.1,389.8-64.9,391.4-64.9,416.1z M-87,372.6v72.4
			h12.7l0-72.4H-87z M127.3,416.1c0,5.4,0,2.8,0,12.1c0,11.8,7.9,16.7,13.6,16.7c7.7,0,12.8,0,12.8,0v-7.8c0,0-4.6,0-8.2,0
			c-2.4,0-5.4-0.3-5.4-7.2v-15.3c0-16,5.4-17,9.1-17c8.8,0,10.3,0,10.3,0V445l12.7,0v-55.1c0,0-11.1,0-21.8,0
			C142.1,389.8,127.3,391.4,127.3,416.1z M12.7,426.1L0.4,389.8h-13.4l18.6,54.7l-10.5,27.3H6.2l32.7-82H26.7L12.7,426.1z
			 M-111.6,372.6c-11.3,0-31.4,0-31.4,0v72.4l12.8,0v-64.5c0,0,9.8,0,15,0c4.4,0,7.5,5.3,7.5,14.7c0,9-2.8,15-7.6,15
			c-5.1,0-9.3,0-9.3,0v7.8c0,0,6.8,0,13.2,0c5.4,0,16.5-5,16.5-22.4C-95,377.1-105.5,372.6-111.6,372.6z M316.4,389.8
			c-10.9,0-22.7,0-22.7,0V445l12.9,0v-47.3c0,0,2.3,0,10.5,0c8,0,8.7,9.1,8.7,17.3c0,7.9,0,29.9,0,29.9h12.8c0,0,0-23.6,0-30.1
			C338.6,399.8,332.3,389.8,316.4,389.8z M261.9,389.8c-22.3,0-23.4,17.9-23.4,24.3v7.1c0,9.3,3.3,23.7,23.7,23.7
			c18.6,0,23.1-13.1,23.1-24.2v-6.6C285.4,410.9,285.4,389.8,261.9,389.8z M272.5,419.8c0,10.8-1.9,17.4-10.5,17.4
			c-7.2,0-10.7-3.9-10.7-17.5V415c0-9.2,1.2-17.4,10.6-17.4c9.3,0,10.5,7.8,10.5,17.4V419.8z M195.6,380.6l-12.9,0
			c0,0,0,42.3,0,49.1c0,6,4.4,15.3,14.7,15.3c7,0,8.5,0,8.5,0v-7.8c0,0-0.8,0-5.7,0c-2.4,0-4.6-1.7-4.6-5.8c0-3.1,0-33.7,0-33.7
			h13.8v-7.9h-13.8V380.6z M354.5,430.5c-4,0-7.2,3.2-7.2,7.2s3.2,7.2,7.2,7.2c4,0,7.2-3.2,7.2-7.2S358.5,430.5,354.5,430.5z
			 M354.5,443.9c-3.4,0-6.2-2.8-6.2-6.2s2.8-6.2,6.2-6.2c3.4,0,6.2,2.8,6.2,6.2S358,443.9,354.5,443.9z M217.2,445H230v-55.1h-12.8
			V445z M217.2,383.4H230v-10.8h-12.8V383.4z M357.8,440.9c0-0.1-0.1-0.4-0.1-0.7l0-1c0-0.5-0.1-0.8-0.3-1c-0.2-0.2-0.4-0.4-0.7-0.5
			c0.3-0.2,0.6-0.4,0.8-0.7c0.2-0.3,0.3-0.7,0.3-1.2c0-0.9-0.4-1.5-1.1-1.8c-0.4-0.2-0.9-0.3-1.5-0.3h-3.6v7.8h1.1v-3.4h2.3
			c0.4,0,0.7,0,0.9,0.1c0.3,0.2,0.5,0.5,0.6,1l0.1,1.3c0,0.3,0,0.5,0.1,0.6c0,0.1,0,0.2,0.1,0.3h1.3v-0.2
			C358,441.3,357.9,441.2,357.8,440.9z M356.3,437c-0.3,0.2-0.7,0.3-1.1,0.3h-2.4v-2.7h2.5c0.4,0,0.6,0.1,0.8,0.2
			c0.4,0.2,0.6,0.6,0.6,1.1C356.8,436.5,356.6,436.8,356.3,437z"/>
	</g>
</g>
<g>
	<path fill="#FFFFFF" d="M391.2,372.2h20.9c22.8,0,36,14.1,36,36.8c0,22.8-13.4,36.8-36,36.8h-20.9V372.2z M400.1,438.2h10.6
		c18.7,0,28.4-10.9,28.4-29.2c0-18.2-9.7-29.2-28.4-29.2h-10.6V438.2z"/>
	<path fill="#FFFFFF" d="M468.3,420.9c0.6,11.6,7.7,19.2,19.3,19.2c5,0,10.4-0.9,14.6-2.7l1.4,6.7c-4.5,2-10.6,2.9-16.3,2.9
		c-18,0-27.5-12.2-27.5-28.3c0-16.5,9.4-28.5,24.5-28.5c15.2,0,22.6,10.5,22.6,26.6v4.2H468.3z M468.3,414H499v-0.4
		c0-10.4-5.9-16.6-14.5-16.6C474.7,397,469.2,404,468.3,414z"/>
	<path fill="#FFFFFF" d="M529.5,391.3v8.3h0.1c2.7-5.9,9.1-9.6,16.4-9.6c8.2,0,13.6,3.2,16.2,8.9h0.3c3.8-6.5,10.2-8.9,17.2-8.9
		c12.7,0,18.9,8.2,18.9,19.8v35.8h-8.8v-32.5c0-9.6-2.6-16.2-12.3-16.2c-6.7,0-13.3,4.4-13.3,15.2v33.5h-8.8v-33.5
		c0-9.6-2.2-15.2-11.8-15.2c-7.2,0-13.9,5.3-13.9,16.9v31.8H521v-54.4H529.5z"/>
	<path fill="#FFFFFF" d="M637.5,446.9c-15.5,0-25.2-10.8-25.2-28.5s9.7-28.3,25.2-28.3c15.6,0,25.2,10.6,25.2,28.3
		S653.1,446.9,637.5,446.9z M637.5,397c-11.3,0-16.5,8.9-16.5,21.4c0,12.7,5.4,21.6,16.5,21.6c11.3,0,16.5-9,16.5-21.6
		C654,405.8,648.8,397,637.5,397z"/>
</g>
</svg>
