<?xml version="1.0" encoding="utf-8"?>
<!-- Generator: Adobe Illustrator 19.2.1, SVG Export Plug-In . SVG Version: 6.00 Build 0)  -->
<svg version="1.1" id="Layer_1" xmlns="http://www.w3.org/2000/svg" xmlns:xlink="http://www.w3.org/1999/xlink" x="0px" y="0px"
	 viewBox="0 0 154.6 154.6" style="enable-background:new 0 0 154.6 154.6;" xml:space="preserve">
<style type="text/css">
	.st0{fill:#323232;}
	.st1{fill:#D6BD72;}
</style>
<g>
	<path class="st0" d="M77.3,154.6C34.7,154.6,0,119.9,0,77.3C0,34.7,34.7,0,77.3,0v10C40.2,10,10,40.2,10,77.3s30.2,67.3,67.3,67.3
		s67.3-30.2,67.3-67.3c0-21.5-10.4-41.8-27.7-54.4l5.9-8.1c19.9,14.5,31.9,37.9,31.9,62.5C154.6,119.9,119.9,154.6,77.3,154.6z"/>
	<path class="st1" d="M116.9,22.8C105.3,14.4,91.6,10,77.3,10V0c16.5,0,32.2,5.1,45.4,14.8L116.9,22.8z"/>
</g>
<g>
	<path class="st1" d="M74.8,97.4V66.5h-5.2v-4.2c1.5-0.2,2.8-0.7,4.1-1.6c1.3-0.9,2.3-2.1,2.8-3.4h4.2v40.1H74.8z"/>
</g>
</svg>
