<?xml version="1.0" encoding="utf-8"?>
<!-- Generator: Adobe Illustrator 19.2.1, SVG Export Plug-In . SVG Version: 6.00 Build 0)  -->
<svg version="1.1" id="Layer_1" xmlns="http://www.w3.org/2000/svg" xmlns:xlink="http://www.w3.org/1999/xlink" x="0px" y="0px"
	 viewBox="0 0 154.6 154.6" style="enable-background:new 0 0 154.6 154.6;" xml:space="preserve">
<style type="text/css">
	.st0{fill:none;stroke:#323232;stroke-width:10;stroke-miterlimit:10;}
	.st1{fill:none;stroke:#D6BD72;stroke-width:10;stroke-miterlimit:10;}
	.st2{fill:#D6BD72;}
</style>
<g>
	<path class="st0" d="M34,19.4C46.1,10.3,61.1,5,77.3,5"/>
	<path class="st0" d="M8.3,55.8C12.8,41.1,22,28.4,34,19.4"/>
	<path class="st0" d="M8.5,99.5C6.2,92.5,5,85,5,77.3c0-7.5,1.1-14.7,3.3-21.5"/>
	<path class="st0" d="M34.8,135.8c-12.2-8.9-21.6-21.6-26.3-36.3"/>
	<path class="st0" d="M77.3,149.6c-15.9,0-30.6-5.1-42.5-13.8"/>
	<path class="st0" d="M120.6,135.2c-12.1,9-27,14.4-43.3,14.4"/>
	<path class="st0" d="M146.3,98.8c-4.6,14.7-13.7,27.4-25.8,36.4"/>
	<path class="st1" d="M146.1,54.9c2.3,7.1,3.5,14.6,3.5,22.4c0,7.5-1.1,14.7-3.3,21.5"/>
	<path class="st1" d="M119.8,18.8c12.2,8.9,21.5,21.4,26.3,36.1"/>
	<path class="st1" d="M77.3,5c15.9,0,30.6,5.1,42.5,13.8"/>
</g>
<g>
	<path class="st2" d="M76.9,91.8c2.8,0,4.2-1.3,4.2-3.9v-2.4c0-4.1-2.2-6.2-6.5-6.2v-5.2c2.3,0,4-0.6,5.1-1.9c1-1.2,1.5-2.8,1.5-4.9
		v-0.9c0-2.6-1.2-3.9-3.5-3.9c-1.3,0-2.2,0.5-2.8,1.5c-0.4,0.7-0.7,1.7-0.7,2.9v1h-5.9V67c0-2.9,0.7-5.2,2.2-7c1.6-2,4-3.1,6.9-3.1
		c2.8,0,5.1,1,6.8,2.9c1.5,1.7,2.3,3.9,2.3,6.5V68c0,2.5-0.7,4.6-2.2,6.5c-0.6,0.8-1.4,1.4-2.2,2c1.8,1,3.2,2.5,4.2,4.6
		c0.5,1,0.8,2.3,0.8,3.8v3.2c0,3-1,5.4-3,7.3c-1.9,1.8-4.3,2.8-7,2.8c-2.7,0-4.9-0.9-6.8-2.8c-1.9-1.9-2.8-4.1-2.8-6.8v-1l5.8-0.4
		l0.1,1.4c0.1,1,0.4,1.8,1.1,2.5C75.1,91.5,75.9,91.8,76.9,91.8z"/>
</g>
</svg>
