<?xml version="1.0" encoding="utf-8"?>
<!-- Generator: Adobe Illustrator 18.1.1, SVG Export Plug-In . SVG Version: 6.00 Build 0)  -->
<svg version="1.1" id="Layer_1" xmlns="http://www.w3.org/2000/svg" xmlns:xlink="http://www.w3.org/1999/xlink" x="0px" y="0px"
	 viewBox="228.5 45.6 338.2 384" enable-background="new 228.5 45.6 338.2 384" xml:space="preserve">
<path d="M394.5,97.6c-91.6,0-166,74.5-166,166c0,91.5,74.5,166,166,166s166-74.5,166-166C560.6,172.1,486.1,97.6,394.5,97.6z
	 M394.5,399.2c-74.8,0-135.6-60.8-135.6-135.6c0-74.8,60.8-135.6,135.6-135.6c74.8,0,135.6,60.8,135.6,135.6
	C530.2,338.4,469.3,399.2,394.5,399.2z M289.3,249.9c-7.5,0-13.6,6.1-13.6,13.6c0,7.5,6.1,13.6,13.6,13.6c7.5,0,13.7-6.1,13.7-13.6
	C303,256,296.9,249.9,289.3,249.9z M486.1,263.6c0,7.5,6.1,13.6,13.7,13.6c7.5,0,13.6-6.1,13.6-13.6c0-7.5-6.1-13.6-13.6-13.6
	C492.2,249.9,486.1,256,486.1,263.6z M310.5,179.5c-5.3,5.3-5.3,14,0,19.3c5.3,5.3,14,5.4,19.3,0c5.3-5.3,5.3-14,0-19.3
	C324.5,174.2,315.8,174.2,310.5,179.5z M459.3,328.3c-5.3,5.3-5.3,14,0,19.3c5.3,5.3,13.9,5.3,19.3,0c5.3-5.3,5.3-14,0-19.3
	C473.2,323,464.6,323,459.3,328.3z M394.5,355.1c-7.5,0-13.7,6.1-13.7,13.7c0,7.5,6.1,13.6,13.7,13.6c7.5,0,13.6-6.1,13.6-13.6
	C408.2,361.3,402.1,355.2,394.5,355.1z M409.7,239.2V160c0-8.4-6.8-15.2-15.2-15.2c-8.4,0-15.2,6.8-15.2,15.2v79.2
	c-8.1,5.1-13.6,14.1-13.6,24.4c0,15.8,12.9,28.8,28.8,28.8c15.8,0,28.7-12.9,28.7-28.8C423.3,253.3,417.9,244.3,409.7,239.2z
	 M478.6,198.8c5.3-5.3,5.3-14,0-19.3c-5.3-5.3-13.9-5.3-19.3,0c-5.3,5.3-5.3,14,0,19.3C464.6,204.2,473.2,204.2,478.6,198.8z
	 M310.5,328.3c-5.3,5.3-5.3,14,0,19.3c5.3,5.3,14,5.3,19.3,0c5.3-5.3,5.3-14,0-19.3C324.4,323,315.8,323,310.5,328.3z M360.1,88.7
	l68.9,0c4.7,0,8.6-3.9,8.6-8.6V54.2c0-4.8-3.9-8.6-8.6-8.6h-68.9c-4.8,0-8.6,3.9-8.6,8.6l0,25.8C351.5,84.9,355.3,88.7,360.1,88.7z
	 M564.7,132.5l-39-39c-2.7-2.7-7.1-2.7-9.7,0l-14.6,14.6c-2.7,2.7-2.7,7.1,0,9.8l39,39c2.7,2.7,7.1,2.7,9.8,0l14.6-14.6
	C567.3,139.6,567.3,135.2,564.7,132.5z"/>
</svg>
